<mxfile host="app.diagrams.net" modified="2021-04-05T15:01:15.687Z" agent="5.0 (Windows)" etag="uAfdaTzhiRXjLcwT8rGa" version="14.5.4" type="github">
  <diagram id="C5RBs43oDa-KdzZeNtuy" name="Page-1">
    <mxGraphModel dx="1178" dy="642" grid="1" gridSize="10" guides="1" tooltips="1" connect="1" arrows="1" fold="1" page="1" pageScale="1" pageWidth="827" pageHeight="1169" math="0" shadow="0">
      <root>
        <mxCell id="WIyWlLk6GJQsqaUBKTNV-0" />
        <mxCell id="WIyWlLk6GJQsqaUBKTNV-1" parent="WIyWlLk6GJQsqaUBKTNV-0" />
        <mxCell id="L-Rmcc3XQC4y8Tnn0G10-0" value="начало" style="rounded=1;whiteSpace=wrap;html=1;fontFamily=Times New Roman;fontSize=16;arcSize=30;" vertex="1" parent="WIyWlLk6GJQsqaUBKTNV-1">
          <mxGeometry x="50" y="60" width="120" height="40" as="geometry" />
        </mxCell>
        <mxCell id="L-Rmcc3XQC4y8Tnn0G10-1" value="i=1,9,1" style="shape=hexagon;perimeter=hexagonPerimeter2;whiteSpace=wrap;html=1;fixedSize=1;fontFamily=Times New Roman;fontSize=16;" vertex="1" parent="WIyWlLk6GJQsqaUBKTNV-1">
          <mxGeometry x="50" y="110" width="120" height="50" as="geometry" />
        </mxCell>
        <mxCell id="L-Rmcc3XQC4y8Tnn0G10-2" value="j=1,9,1" style="shape=hexagon;perimeter=hexagonPerimeter2;whiteSpace=wrap;html=1;fixedSize=1;fontFamily=Times New Roman;fontSize=16;" vertex="1" parent="WIyWlLk6GJQsqaUBKTNV-1">
          <mxGeometry x="50" y="170" width="120" height="50" as="geometry" />
        </mxCell>
        <mxCell id="L-Rmcc3XQC4y8Tnn0G10-3" value="k:=i*j" style="rounded=0;whiteSpace=wrap;html=1;fontFamily=Times New Roman;fontSize=16;" vertex="1" parent="WIyWlLk6GJQsqaUBKTNV-1">
          <mxGeometry x="50" y="230" width="120" height="40" as="geometry" />
        </mxCell>
        <mxCell id="L-Rmcc3XQC4y8Tnn0G10-4" value="вывод k" style="shape=parallelogram;perimeter=parallelogramPerimeter;whiteSpace=wrap;html=1;fixedSize=1;fontFamily=Times New Roman;fontSize=16;" vertex="1" parent="WIyWlLk6GJQsqaUBKTNV-1">
          <mxGeometry x="50" y="280" width="120" height="40" as="geometry" />
        </mxCell>
        <mxCell id="L-Rmcc3XQC4y8Tnn0G10-5" value="новая строка" style="shape=parallelogram;perimeter=parallelogramPerimeter;whiteSpace=wrap;html=1;fixedSize=1;fontFamily=Times New Roman;fontSize=16;" vertex="1" parent="WIyWlLk6GJQsqaUBKTNV-1">
          <mxGeometry x="50" y="340" width="120" height="40" as="geometry" />
        </mxCell>
        <mxCell id="L-Rmcc3XQC4y8Tnn0G10-6" value="конец" style="rounded=1;whiteSpace=wrap;html=1;fontFamily=Times New Roman;fontSize=16;arcSize=32;" vertex="1" parent="WIyWlLk6GJQsqaUBKTNV-1">
          <mxGeometry x="50" y="410" width="120" height="36" as="geometry" />
        </mxCell>
        <mxCell id="L-Rmcc3XQC4y8Tnn0G10-7" value="" style="endArrow=none;html=1;entryX=0.5;entryY=1;entryDx=0;entryDy=0;fontFamily=Times New Roman;fontSize=16;" edge="1" parent="WIyWlLk6GJQsqaUBKTNV-1" source="L-Rmcc3XQC4y8Tnn0G10-1" target="L-Rmcc3XQC4y8Tnn0G10-0">
          <mxGeometry width="50" height="50" relative="1" as="geometry">
            <mxPoint x="210" y="170" as="sourcePoint" />
            <mxPoint x="260" y="120" as="targetPoint" />
          </mxGeometry>
        </mxCell>
        <mxCell id="L-Rmcc3XQC4y8Tnn0G10-8" value="" style="endArrow=none;html=1;entryX=0.5;entryY=1;entryDx=0;entryDy=0;exitX=0.5;exitY=0;exitDx=0;exitDy=0;fontFamily=Times New Roman;fontSize=16;" edge="1" parent="WIyWlLk6GJQsqaUBKTNV-1" source="L-Rmcc3XQC4y8Tnn0G10-2" target="L-Rmcc3XQC4y8Tnn0G10-1">
          <mxGeometry width="50" height="50" relative="1" as="geometry">
            <mxPoint x="220" y="240" as="sourcePoint" />
            <mxPoint x="270" y="190" as="targetPoint" />
          </mxGeometry>
        </mxCell>
        <mxCell id="L-Rmcc3XQC4y8Tnn0G10-9" value="" style="endArrow=none;html=1;entryX=0.5;entryY=1;entryDx=0;entryDy=0;fontFamily=Times New Roman;fontSize=16;" edge="1" parent="WIyWlLk6GJQsqaUBKTNV-1" source="L-Rmcc3XQC4y8Tnn0G10-3" target="L-Rmcc3XQC4y8Tnn0G10-2">
          <mxGeometry width="50" height="50" relative="1" as="geometry">
            <mxPoint x="260" y="340" as="sourcePoint" />
            <mxPoint x="310" y="290" as="targetPoint" />
          </mxGeometry>
        </mxCell>
        <mxCell id="L-Rmcc3XQC4y8Tnn0G10-11" value="" style="endArrow=none;html=1;entryX=0.5;entryY=1;entryDx=0;entryDy=0;fontFamily=Times New Roman;fontSize=16;" edge="1" parent="WIyWlLk6GJQsqaUBKTNV-1" source="L-Rmcc3XQC4y8Tnn0G10-4" target="L-Rmcc3XQC4y8Tnn0G10-3">
          <mxGeometry width="50" height="50" relative="1" as="geometry">
            <mxPoint x="210" y="410" as="sourcePoint" />
            <mxPoint x="260" y="360" as="targetPoint" />
          </mxGeometry>
        </mxCell>
        <mxCell id="L-Rmcc3XQC4y8Tnn0G10-12" value="" style="endArrow=classicThin;html=1;exitX=1;exitY=0.5;exitDx=0;exitDy=0;entryX=1;entryY=0.5;entryDx=0;entryDy=0;endFill=1;rounded=0;fontFamily=Times New Roman;fontSize=16;" edge="1" parent="WIyWlLk6GJQsqaUBKTNV-1" source="L-Rmcc3XQC4y8Tnn0G10-4" target="L-Rmcc3XQC4y8Tnn0G10-2">
          <mxGeometry width="50" height="50" relative="1" as="geometry">
            <mxPoint x="210" y="350" as="sourcePoint" />
            <mxPoint x="220" y="240" as="targetPoint" />
            <Array as="points">
              <mxPoint x="190" y="300" />
              <mxPoint x="190" y="240" />
              <mxPoint x="190" y="195" />
            </Array>
          </mxGeometry>
        </mxCell>
        <mxCell id="L-Rmcc3XQC4y8Tnn0G10-13" value="" style="endArrow=classic;html=1;exitX=0;exitY=0.5;exitDx=0;exitDy=0;entryX=0;entryY=0.5;entryDx=0;entryDy=0;rounded=0;fontFamily=Times New Roman;fontSize=16;" edge="1" parent="WIyWlLk6GJQsqaUBKTNV-1" source="L-Rmcc3XQC4y8Tnn0G10-2" target="L-Rmcc3XQC4y8Tnn0G10-5">
          <mxGeometry width="50" height="50" relative="1" as="geometry">
            <mxPoint x="10" y="240" as="sourcePoint" />
            <mxPoint x="40" y="510" as="targetPoint" />
            <Array as="points">
              <mxPoint x="30" y="195" />
              <mxPoint x="30" y="360" />
            </Array>
          </mxGeometry>
        </mxCell>
        <mxCell id="L-Rmcc3XQC4y8Tnn0G10-14" value="" style="endArrow=classic;html=1;exitX=1;exitY=0.5;exitDx=0;exitDy=0;entryX=1;entryY=0.5;entryDx=0;entryDy=0;rounded=0;fontFamily=Times New Roman;fontSize=16;" edge="1" parent="WIyWlLk6GJQsqaUBKTNV-1" source="L-Rmcc3XQC4y8Tnn0G10-5" target="L-Rmcc3XQC4y8Tnn0G10-1">
          <mxGeometry width="50" height="50" relative="1" as="geometry">
            <mxPoint x="260" y="460" as="sourcePoint" />
            <mxPoint x="260" y="170" as="targetPoint" />
            <Array as="points">
              <mxPoint x="200" y="360" />
              <mxPoint x="200" y="330" />
              <mxPoint x="200" y="135" />
            </Array>
          </mxGeometry>
        </mxCell>
        <mxCell id="L-Rmcc3XQC4y8Tnn0G10-15" value="" style="endArrow=classic;html=1;exitX=-0.025;exitY=0.503;exitDx=0;exitDy=0;exitPerimeter=0;entryX=0.5;entryY=0;entryDx=0;entryDy=0;rounded=0;fontFamily=Times New Roman;fontSize=16;" edge="1" parent="WIyWlLk6GJQsqaUBKTNV-1" source="L-Rmcc3XQC4y8Tnn0G10-1" target="L-Rmcc3XQC4y8Tnn0G10-6">
          <mxGeometry width="50" height="50" relative="1" as="geometry">
            <mxPoint x="270" y="330" as="sourcePoint" />
            <mxPoint x="108" y="552" as="targetPoint" />
            <Array as="points">
              <mxPoint x="20" y="135" />
              <mxPoint x="20" y="180" />
              <mxPoint x="20" y="350" />
              <mxPoint x="20" y="390" />
              <mxPoint x="110" y="390" />
            </Array>
          </mxGeometry>
        </mxCell>
      </root>
    </mxGraphModel>
  </diagram>
</mxfile>
